English Plot:
When Blu, a domesticated macaw from small-town Minnesota, meets the fiercely independent Jewel, he takes off on an adventure to Rio de Janeiro with this bird of his dreams.

Greek (Hellenic) Plot:
Î— Ï„Î±Î¹Î½Î¯Î± Î¼Î±Ï‚ Î¼ÎµÏ„Î±Ï†Î­ÏÎµÎ¹ ÏƒÏ„Î· Î¼Î±Î³ÎµÏ…Ï„Î¹ÎºÎ® Ï€ÏŒÎ»Î· Ï„Î¿Ï… Î¡Î¯Î¿ ÎÏ„Îµ Î¤Î¶Î±Î½Î­Î¹ÏÎ¿ ÎºÎ±Î¹ ÏƒÏ„Î¿ Ï€Î»Î¿ÏÏƒÎ¹Î¿ Ï„ÏÎ¿Ï€Î¹ÎºÏŒ Î´Î¬ÏƒÎ¿Ï‚ Ï„Î·Ï‚ Î’ÏÎ±Î¶Î¹Î»Î¯Î±Ï‚ ÎºÎ±Î¹ Î­Ï‡ÎµÎ¹ Ï‰Ï‚ Î®ÏÏ‰Î± Ï„Î¿Î½ ÎœÏ€Î»Î¿Ï…, Î­Î½Î±Î½ Ï€Î±Ï€Î±Î³Î¬Î»Î¿ Ï„ÏŒÏƒÎ¿ ÏƒÏ€Î¬Î½Î¹Î¿ Ï€Î¿Ï… Ï€Î¹ÏƒÏ„ÎµÏÎµÎ¹ ÏŒÏ„Î¹ ÎµÎ¯Î½Î±Î¹ Î¿ Ï„ÎµÎ»ÎµÏ…Ï„Î±Î¯Î¿Ï‚ Ï„Î¿Ï… ÎµÎ¯Î´Î¿Ï…Ï‚ Ï„Î¿Ï…. ÎŒÏ„Î±Î½ ÏŒÎ¼Ï‰Ï‚ Î±Î½Î±ÎºÎ±Î»ÏÏ€Ï„ÎµÎ¹ ÏŒÏ„Î¹ Ï…Ï€Î¬ÏÏ‡ÎµÎ¹ ÎºÎ¹ Î¬Î»Î»Î¿Ï‚ ÏƒÎ±Î½ ÎºÎ¹ Î±Ï…Ï„ÏŒÎ½- ÎºÎ±Î¹ Î¼Î¬Î»Î¹ÏƒÏ„Î± Î¸Î·Î»Ï…ÎºÎ¿Ï Î³Î­Î½Î¿Ï…Ï‚- Î±Ï†Î®Î½ÎµÎ¹ Ï„Î¿ Î²Î¿Î»Î¹ÎºÏŒ ÎºÎ»Î¿Ï…Î²Î¯ Ï„Î¿Ï… ÏƒÏ„Î· Î¼Î¹ÎºÏÎ® Ï€ÏŒÎ»Î· Ï„Î·Ï‚ ÎœÎ¹Î½ÎµÏƒÏŒÏ„Î± ÎºÎ±Î¹ Ï€ÎµÏ„Î¬ÎµÎ¹ Î³Î¹Î± Ï„Î¿ Î¡Î¯Î¿. Î‘Î»Î»Î¬, ÏŒÏ€Ï‰Ï‚ Î±Ï€Î¿Î´ÎµÎ¹ÎºÎ½ÏÎµÏ„Î±Î¹, Î¿ Î¿Î¹ÎºÏŒÏƒÎ¹Ï„Î¿Ï‚ ÎœÏ€Î»Î¿Ï… ÎºÎ±Î¹ Î· ÎµÎ½Ï„ÎµÎ»ÏŽÏ‚ Î±Î½ÎµÎ¾Î¬ÏÏ„Î·Ï„Î· Ï€Î±Ï€Î±Î³Î±Î»Î¯Î½Î± Î¤Î¶Î¿ÏÎµÎ» Î´ÎµÎ½ Î´ÎµÎ¯Ï‡Î½Î¿Ï…Î½ Î½Î± ÎµÎ¯Î½Î±Î¹ Ï†Ï„Î¹Î±Î³Î¼Î­Î½Î¿Î¹ Î¿ Î­Î½Î±Ï‚ Î³Î¹Î± Ï„Î¿Î½ Î¬Î»Î»Î¿Î½. Î‘Ï€ÏÎ¿ÏƒÎ´ÏŒÎºÎ·Ï„Î± Î¸Î± Î²ÏÎµÎ¸Î¿ÏÎ½ Î¼Î±Î¶Î¯ Î³Î¹Î± Î½Î± Î¶Î®ÏƒÎ¿Ï…Î½ Î¼Î¹Î± Ï€ÎµÏÎ¹Ï€Î­Ï„ÎµÎ¹Î±-ÎµÎ¼Ï€ÎµÎ¹ÏÎ¯Î± Î¶Ï‰Î®Ï‚, ÎºÎ±Ï„Î¬ Ï„Î· Î´Î¹Î¬ÏÎºÎµÎ¹Î± Ï„Î·Ï‚ Î¿Ï€Î¿Î¯Î±Ï‚ Î¼Î±Î¸Î±Î¯Î½Î¿Ï…Î½ Ï€Î¿Î»Î»Î¬ Î³Î¹Î± Ï„Î· Ï†Î¹Î»Î¯Î±, Ï„Î·Î½ Î±Î³Î¬Ï€Î·, Ï„Î¿ Î¸Î¬ÏÏÎ¿Ï‚ ÎºÎ±Î¹ Ï„Î¹Ï‚ Ï€ÏÎ¿ÎºÎ»Î®ÏƒÎµÎ¹Ï‚ Ï„Î·Ï‚ Î¶Ï‰Î®Ï‚.

I tainia mas metaferei sti mageftiki poli tou Rio Nte Tzaneiro kai sto ploysio tropiko dasos tis Vrazilias kai exei ws irwa ton Mplou, enan papagalo toso spanio pou pisteyei oti einai o teleftaios tou eidous tou. Otan omws anakalyptei oti yparxei ki allos san ki afton- kai malista thilykoy genous- afinei to voliko klouvi tou sti mikri poli tis Minesota kai petaei gia to Rio. Alla, opws apodeiknyetai, o oikositos Mplou kai i entelws aneksartiti papagalina Tzoyel den deixnoun na einai ftiagmenoi o enas gia ton allon. Aprosdokita tha vrethoyn mazi gia na zisoun mia peripeteia-empeiria zwis, kata ti diarkeia tis opoias mathainoun polla gia ti filia, tin agapi, to tharros kai tis prokliseis tis zwis.

Technical Details

Format : AVI
Format/Info : Audio Video Interleave
File size : 634 MiB
Duration : 1h 22mn
Overall bit rate : 1 069 Kbps


Video
ID : 0
Format : MPEG-4 Visual
Format profile : Advanced Simple@L5
Format settings, BVOP : Yes
Format settings, QPel : No
Format settings, GMC : No warppoints
Format settings, Matrix : Default (H.263)
Muxing mode : Packed bitstream
Codec ID : XVID
Codec ID/Hint : XviD
Duration : 1h 22mn
Bit rate : 931 Kbps
Width : 688 pixels
Height : 288 pixels
Display aspect ratio : 2.35:1
Frame rate : 25.000 fps
Color space : YUV
Chroma subsampling : 4:2:0
Bit depth : 8 bits
Scan type : Progressive
Bits/(Pixel*Frame) : 0.188
Stream size : 552 MiB (87%)
Writing library : XviD 1.2.1 (UTC 2008-12-04)

Audio
ID : 1
Format : MPEG Audio
Format version : Version 1
Format profile : Layer 3
Mode : Joint stereo
Mode extension : MS Stereo
Codec ID : 55
Codec ID/Hint : MP3
Duration : 1h 22mn
Bit rate mode : Constant
Bit rate : 128 Kbps
Channel(s) : 2 channels
Sampling rate : 44.1 KHz
Stream size : 75.9 MiB (12%)
Alignment : Split accross interleaves
Interleave, duration : 40 ms (1.00 video frame)
Interleave, preload duration : 500 ms
Writing library : LAME3.98r


Screens:
 
http://img821.imageshack.us/img821/3364/snapshot1jy.png 
http://img135.imageshack.us/img135/7335/snapshot2m.png 
http://img194.imageshack.us/img194/1308/snapshot3iv.png 
http://img829.imageshack.us/img829/7263/snapshot4b.png 
http://img651.imageshack.us/img651/3649/snapshot5n.png

Source: https://thepiratebay.org/torrent/6318386/Rio.2011.TS.XviD.Feel-Free

THE PIRATE BAY HELLAS